<svg xmlns="http://www.w3.org/2000/svg" xmlns:xlink="http://www.w3.org/1999/xlink" width="1200" zoomAndPan="magnify" viewBox="0 0 900 470.999988" height="628" preserveAspectRatio="xMidYMid meet" version="1.0"><defs><clipPath id="704f3c7139"><path d="M 404 157.617188 L 469.910156 157.617188 L 469.910156 297 L 404 297 Z M 404 157.617188 " clip-rule="nonzero"/></clipPath></defs><rect x="-90" width="1080" fill="#ffffff" y="-47.099999" height="565.199986" fill-opacity="1"/><rect x="-90" width="1080" fill="#ffffff" y="-47.099999" height="565.199986" fill-opacity="1"/><g clip-path="url(#704f3c7139)"><path fill="#ffffff" d="M 469.492188 266.703125 C 469.523438 266.601562 469.523438 266.5 469.492188 266.394531 C 468.835938 263.453125 467.476562 260.878906 465.417969 258.675781 C 464.582031 257.777344 463.65625 256.914062 462.792969 256.050781 C 461.925781 255.183594 460.628906 254.074219 459.703125 252.960938 C 458.425781 251.441406 457.324219 249.804688 456.398438 248.050781 C 455.355469 246.125 454.417969 244.148438 453.585938 242.121094 C 453.058594 240.835938 452.636719 239.519531 452.320312 238.167969 C 452.257812 237.828125 452.167969 237.394531 452.136719 237.023438 C 452.101562 236.863281 452.078125 236.695312 452.074219 236.53125 C 452.074219 236.46875 452.042969 236.40625 452.042969 236.34375 C 451.941406 234.910156 451.960938 233.480469 452.105469 232.050781 C 452.234375 231.007812 452.441406 229.976562 452.722656 228.964844 C 452.910156 228.324219 453.125 227.675781 453.371094 227.019531 C 453.441406 226.785156 453.523438 226.558594 453.617188 226.339844 C 453.683594 226.230469 453.753906 226.128906 453.835938 226.027344 C 453.867188 226 453.867188 225.9375 453.898438 225.90625 L 454.390625 225.289062 L 454.484375 225.070312 C 454.746094 224.703125 454.972656 224.3125 455.164062 223.898438 C 455.804688 222.507812 456.167969 221.042969 456.242188 219.511719 C 456.304688 218.585938 456.335938 217.660156 456.367188 216.734375 C 456.445312 215.609375 456.445312 214.488281 456.367188 213.367188 C 456.320312 212.414062 455.96875 211.589844 455.316406 210.894531 C 454.667969 210.246094 453.710938 210.03125 452.816406 209.875 L 452.167969 209.785156 L 452.167969 209.722656 C 452.246094 208.605469 452.152344 207.503906 451.890625 206.417969 C 451.640625 205.152344 451.519531 203.792969 451.148438 202.558594 C 450.734375 201.296875 450.011719 200.246094 448.984375 199.40625 C 447.78125 198.386719 446.300781 197.800781 444.847656 197.335938 C 443.898438 197.039062 442.929688 196.832031 441.945312 196.71875 L 441.914062 196.71875 C 441.355469 195.667969 440.554688 194.929688 439.6875 194.09375 C 438.792969 193.191406 437.785156 192.4375 436.664062 191.839844 C 434.59375 190.757812 432 190.355469 430.207031 188.78125 C 429.75 188.398438 429.378906 187.945312 429.097656 187.421875 C 429.097656 187.390625 429.066406 187.359375 429.066406 187.332031 C 429.675781 187.449219 430.292969 187.523438 430.917969 187.546875 C 431.851562 187.632812 432.789062 187.675781 433.730469 187.671875 C 435.488281 187.730469 437.28125 187.730469 439.070312 187.671875 C 439.996094 187.621094 440.910156 187.683594 441.820312 187.855469 C 443.09375 188.175781 444.277344 188.703125 445.371094 189.429688 C 446.207031 189.949219 446.988281 190.535156 447.71875 191.191406 C 448.464844 191.882812 449.25 192.53125 450.066406 193.136719 L 450.253906 193.382812 C 450.53125 193.722656 450.59375 192.796875 450.53125 192.671875 C 449.355469 190.046875 447.289062 187.300781 444.632812 186.09375 C 443.085938 185.449219 441.492188 184.972656 439.84375 184.675781 C 438.078125 184.3125 436.296875 184.046875 434.5 183.871094 C 433.667969 183.808594 432.800781 183.71875 431.9375 183.6875 L 430.671875 183.625 C 430.238281 183.625 430.054688 183.871094 429.714844 184.148438 C 428.785156 184.984375 428.261719 186.035156 428.507812 187.269531 C 429.097656 190.046875 431.9375 191.003906 434.316406 191.777344 C 435.796875 192.261719 437.164062 192.960938 438.421875 193.878906 C 439.160156 194.390625 439.808594 194.996094 440.367188 195.699219 C 440.644531 196.015625 440.902344 196.347656 441.140625 196.6875 L 440.800781 196.625 C 440.246094 196.535156 439.660156 196.503906 439.070312 196.441406 C 437.960938 196.328125 436.859375 196.152344 435.765625 195.917969 C 434.851562 195.691406 433.976562 195.363281 433.140625 194.929688 C 432.726562 194.691406 432.324219 194.433594 431.9375 194.15625 L 431.351562 193.691406 L 430.824219 193.320312 C 430.515625 193.042969 430.484375 193.847656 430.578125 194 C 430.847656 194.480469 431.175781 194.914062 431.566406 195.296875 C 431.980469 195.664062 432.433594 195.972656 432.925781 196.226562 C 433.871094 196.75 434.867188 197.128906 435.921875 197.367188 C 437.1875 197.632812 438.460938 197.808594 439.75 197.894531 C 440.242188 197.964844 440.738281 197.996094 441.234375 197.984375 L 441.265625 197.984375 L 442.34375 198.203125 C 443.621094 198.386719 444.867188 198.695312 446.082031 199.128906 C 447.378906 199.621094 448.707031 200.332031 449.605469 201.414062 C 450.5 202.496094 450.714844 202.957031 450.871094 203.761719 C 451.148438 205.273438 451.550781 206.789062 451.734375 208.300781 C 451.78125 208.78125 451.75 209.253906 451.640625 209.722656 C 447.257812 209.136719 442.65625 209.257812 438.484375 210.773438 C 436.527344 211.484375 434.734375 212.492188 433.109375 213.796875 C 431.535156 215.066406 429.960938 216.703125 429.375 218.679688 C 429.222656 219.113281 429.140625 219.5625 429.128906 220.023438 C 429.113281 220.484375 429.167969 220.9375 429.292969 221.382812 C 429.417969 221.824219 429.605469 222.242188 429.855469 222.628906 C 430.105469 223.015625 430.410156 223.355469 430.765625 223.652344 C 432.246094 224.917969 434.285156 225.351562 436.199219 225.132812 C 440.554688 224.640625 443.859375 221.179688 446.636719 218.121094 C 448.265625 216.363281 449.75 214.492188 451.085938 212.5 C 451.390625 212.042969 451.648438 211.558594 451.859375 211.050781 L 452.414062 211.144531 C 453.308594 211.265625 454.265625 211.390625 455.007812 211.976562 C 455.75 212.5625 455.933594 213.796875 455.902344 214.878906 C 455.875 215.960938 455.875 216.824219 455.8125 217.8125 C 455.792969 219.230469 455.585938 220.621094 455.195312 221.984375 C 454.964844 222.652344 454.65625 223.277344 454.265625 223.867188 C 454.070312 224.191406 453.855469 224.5 453.617188 224.792969 C 453.558594 224.832031 453.519531 224.882812 453.496094 224.949219 C 453.390625 224.972656 453.320312 225.035156 453.277344 225.132812 L 453.09375 225.378906 L 452.660156 225.78125 C 450.398438 227.863281 447.867188 229.53125 445.0625 230.785156 L 443.394531 231.589844 L 441.203125 231.988281 C 436.386719 232.8125 431.539062 233.328125 426.65625 233.535156 C 423.238281 233.742188 419.820312 233.730469 416.402344 233.503906 C 414.734375 233.378906 413.066406 233.164062 411.429688 232.917969 C 410.625 232.792969 409.855469 232.667969 409.050781 232.484375 C 408.25 232.300781 407.074219 232.050781 406.582031 231.15625 C 406.085938 230.261719 406.023438 229.210938 405.902344 228.285156 C 405.808594 227.214844 405.777344 226.144531 405.808594 225.070312 C 405.9375 222.980469 406.171875 220.898438 406.519531 218.832031 C 406.640625 217.84375 406.796875 216.824219 406.890625 215.835938 C 406.898438 216.171875 406.941406 216.5 407.011719 216.824219 C 407.414062 218.863281 408.804688 220.039062 410.6875 220.71875 C 412.574219 221.398438 414.734375 221.796875 416.648438 221.519531 C 418.351562 221.335938 420 220.921875 421.589844 220.285156 C 421.640625 220.242188 421.671875 220.191406 421.683594 220.128906 L 422.363281 220.71875 C 422.609375 220.964844 422.640625 220.222656 422.515625 220.070312 C 421.898438 219.234375 421.40625 218.277344 420.789062 217.414062 L 419.058594 214.972656 C 418.621094 214.28125 418.066406 213.703125 417.390625 213.242188 C 416.773438 212.886719 416.113281 212.636719 415.414062 212.5 L 416.09375 212.191406 C 416.910156 211.773438 417.640625 211.238281 418.285156 210.585938 C 418.921875 209.957031 419.425781 209.238281 419.800781 208.425781 C 419.871094 208.265625 419.953125 208.109375 420.046875 207.960938 L 420.171875 207.839844 C 420.777344 207.886719 421.3125 207.710938 421.777344 207.3125 C 422.347656 206.894531 422.710938 206.339844 422.855469 205.644531 C 422.949219 205.210938 422.917969 204.5625 422.394531 204.441406 C 421.867188 204.316406 420.695312 204.875 420.292969 205.429688 C 420.035156 205.867188 419.902344 206.339844 419.890625 206.851562 L 419.582031 206.695312 C 419.152344 206.417969 419.152344 206.109375 418.964844 205.675781 C 418.472656 204.65625 417.390625 203.976562 416.277344 204.472656 C 415.878906 204.625 415.597656 204.964844 415.199219 205.089844 C 414.429688 205.304688 413.65625 205.3125 412.882812 205.121094 C 411.121094 204.6875 409.484375 203.296875 410.285156 201.351562 C 410.71875 200.402344 411.359375 199.621094 412.203125 199.003906 C 413.902344 197.707031 415.320312 196.007812 416.710938 194.402344 C 418.101562 192.796875 418.8125 191.992188 419.550781 190.511719 C 420.347656 189.003906 420.800781 187.394531 420.910156 185.695312 C 421.039062 185.578125 421.089844 185.433594 421.066406 185.261719 C 420.902344 183.53125 420.445312 181.886719 419.695312 180.320312 C 418.949219 178.753906 417.953125 177.363281 416.710938 176.148438 C 416.292969 175.738281 415.800781 175.457031 415.230469 175.316406 C 415.917969 172.40625 417.101562 169.710938 418.777344 167.230469 C 420.453125 164.75 422.511719 162.648438 424.957031 160.921875 C 426.113281 160.121094 427.328125 159.421875 428.601562 158.824219 C 428.878906 158.667969 428.757812 157.617188 428.449219 157.773438 C 426.828125 158.535156 425.308594 159.460938 423.890625 160.554688 C 422.46875 161.644531 421.183594 162.875 420.03125 164.246094 C 418.878906 165.617188 417.890625 167.09375 417.058594 168.679688 C 416.226562 170.265625 415.578125 171.921875 415.105469 173.648438 C 414.953125 174.1875 414.828125 174.734375 414.734375 175.285156 C 414.457031 175.28125 414.199219 175.347656 413.960938 175.484375 C 413.722656 175.625 413.539062 175.816406 413.40625 176.058594 C 412.972656 176.738281 413.160156 178.34375 414.054688 178.558594 C 414.175781 179.738281 414.09375 180.898438 413.808594 182.050781 C 413.546875 183.183594 413.207031 184.296875 412.789062 185.382812 C 411.863281 187.515625 410.71875 189.554688 409.667969 191.625 C 408.621094 193.691406 407.507812 195.636719 406.613281 197.707031 C 405.722656 199.6875 405.382812 201.757812 405.59375 203.914062 C 405.777344 206.199219 406.332031 208.457031 406.394531 210.773438 C 406.390625 212.949219 406.214844 215.109375 405.871094 217.257812 C 405.285156 221.488281 404.511719 225.8125 405.316406 230.042969 C 405.46875 230.972656 405.683594 231.898438 406.273438 232.640625 C 406.859375 233.378906 407.691406 233.6875 408.589844 233.90625 C 410.210938 234.277344 411.847656 234.554688 413.5 234.738281 C 416.972656 235.046875 420.453125 235.140625 423.9375 235.015625 C 429.46875 234.851562 434.964844 234.347656 440.429688 233.503906 C 441.667969 233.316406 442.933594 233.195312 444.136719 232.949219 C 445.644531 232.589844 447.070312 232.023438 448.414062 231.246094 C 449.753906 230.464844 450.953125 229.511719 452.011719 228.375 C 451.839844 228.933594 451.695312 229.5 451.582031 230.074219 C 451.25 231.707031 451.109375 233.351562 451.148438 235.015625 C 451.191406 237.003906 451.5 238.949219 452.074219 240.855469 C 453.304688 244.828125 455.148438 248.492188 457.601562 251.847656 C 458.160156 252.621094 458.746094 253.363281 459.332031 254.105469 C 459.917969 254.84375 460.320312 255.433594 460.875 256.050781 C 461.433594 256.667969 462.851562 258.027344 463.839844 259.015625 C 464.9375 260.046875 465.9375 261.171875 466.835938 262.382812 C 467.546875 263.433594 468.164062 264.535156 468.691406 265.6875 C 463.378906 259.261719 456.832031 253.949219 449.265625 250.429688 C 445.003906 248.480469 440.574219 247.039062 435.984375 246.105469 C 428.878906 244.621094 420.878906 244.066406 414.179688 247.246094 C 407.476562 250.429688 402.472656 258.179688 404.480469 265.808594 C 405.066406 268.125 406.117188 270.316406 407.136719 272.480469 C 408.15625 274.640625 409.113281 276.710938 409.945312 278.90625 C 411.664062 283.277344 412.992188 287.765625 413.929688 292.371094 C 414.210938 293.761719 414.488281 295.179688 414.703125 296.601562 C 414.765625 297.09375 415.9375 296.816406 415.878906 296.261719 C 415.082031 291.324219 413.890625 286.484375 412.292969 281.746094 C 410.84375 277.546875 408.867188 273.59375 407.105469 269.515625 C 406.210938 267.507812 405.4375 265.40625 405.222656 263.214844 C 405.003906 260.84375 405.394531 258.578125 406.394531 256.421875 C 407.746094 253.433594 409.773438 251.015625 412.480469 249.164062 C 418.535156 245.085938 426.5625 245.332031 433.449219 246.535156 C 438.089844 247.332031 442.578125 248.640625 446.917969 250.460938 C 454.113281 253.484375 460.507812 258.210938 465.726562 263.988281 C 466.652344 265.007812 467.515625 266.054688 468.382812 267.105469 C 468.660156 267.476562 469.648438 267.136719 469.492188 266.703125 Z M 429.867188 185.105469 C 430.121094 184.816406 430.441406 184.671875 430.824219 184.675781 C 431.207031 184.664062 431.589844 184.683594 431.96875 184.734375 L 434.53125 185.015625 C 436.082031 185.199219 437.617188 185.476562 439.132812 185.847656 C 440.730469 186.167969 442.308594 186.582031 443.859375 187.082031 C 445.378906 187.601562 446.65625 188.476562 447.6875 189.707031 L 447.75 189.769531 C 447.277344 189.371094 446.78125 189 446.269531 188.660156 C 445.128906 187.859375 443.890625 187.25 442.5625 186.835938 C 440.058594 186.09375 437.496094 186.34375 434.902344 186.25 C 433.789062 186.21875 432.679688 186.125 431.566406 186.035156 L 430.144531 185.972656 C 429.804688 185.941406 429.496094 185.878906 429.15625 185.878906 C 429.363281 185.589844 429.597656 185.332031 429.867188 185.105469 Z M 448.738281 214.292969 C 446.238281 217.382812 443.425781 220.625 439.90625 222.570312 C 438.269531 223.464844 436.445312 224.023438 434.5625 223.867188 C 432.679688 223.714844 430.640625 222.847656 429.835938 221.117188 C 429.035156 219.390625 431.101562 216.949219 432.371094 215.777344 C 433.714844 214.507812 435.226562 213.488281 436.910156 212.71875 C 440.738281 210.894531 445.03125 210.433594 449.234375 210.742188 L 451.179688 210.925781 C 450.5625 212.160156 449.542969 213.273438 448.738281 214.292969 Z M 420.109375 219.882812 C 419.375 220.195312 418.613281 220.410156 417.824219 220.53125 C 416.09375 220.839844 414.242188 220.625 412.542969 220.253906 C 410.84375 219.882812 409.113281 219.390625 408.15625 218.03125 C 407.722656 217.441406 407.320312 216.609375 407.382812 215.867188 C 407.398438 215.542969 407.519531 215.261719 407.753906 215.035156 C 407.96875 214.816406 408.308594 214.757812 408.558594 214.570312 C 409.019531 214.910156 409.511719 215.1875 410.039062 215.40625 C 411.460938 215.960938 412.941406 216.207031 414.425781 216.578125 C 416.796875 217.125 418.96875 218.117188 420.941406 219.542969 Z M 419.058594 216.144531 C 419.550781 216.855469 420.046875 217.535156 420.511719 218.246094 C 418.988281 216.992188 417.28125 216.09375 415.382812 215.558594 C 413.839844 215.15625 412.234375 215.035156 410.71875 214.507812 C 410.097656 214.324219 409.5 214.078125 408.929688 213.769531 C 408.648438 213.582031 408.308594 213.148438 407.96875 212.996094 C 408.929688 211.945312 410.226562 210.832031 411.644531 211.699219 C 412.261719 212.039062 412.757812 212.5625 413.40625 212.871094 C 414.035156 213.148438 414.683594 213.363281 415.351562 213.519531 C 416.144531 213.632812 416.871094 213.917969 417.523438 214.382812 C 418.179688 214.847656 418.691406 215.433594 419.058594 216.144531 Z M 420.355469 206.789062 C 420.484375 206.308594 420.75 205.929688 421.160156 205.644531 C 421.460938 205.421875 421.800781 205.308594 422.175781 205.304688 C 422.207031 205.304688 422.546875 205.335938 422.515625 205.273438 C 422.488281 205.210938 422.332031 205.738281 422.300781 205.769531 C 422.179688 206.085938 421.988281 206.347656 421.722656 206.558594 C 421.457031 206.769531 421.15625 206.898438 420.820312 206.941406 L 420.355469 206.941406 Z M 415.257812 176.273438 C 416.371094 176.488281 417.207031 177.695312 417.855469 178.527344 C 418.933594 179.96875 419.726562 181.554688 420.230469 183.285156 C 418.933594 181.152344 416.835938 179.578125 414.765625 178.15625 C 414.824219 177.515625 414.917969 176.875 415.042969 176.242188 Z M 413.929688 176.550781 C 414.109375 176.398438 414.316406 176.308594 414.550781 176.273438 L 414.363281 177.601562 C 414.230469 177.621094 414.109375 177.59375 413.992188 177.527344 C 413.875 177.460938 413.792969 177.367188 413.742188 177.242188 C 413.691406 177.121094 413.683594 176.992188 413.71875 176.867188 C 413.753906 176.738281 413.824219 176.632812 413.929688 176.550781 Z M 406.796875 199.34375 C 407.570312 197.246094 408.679688 195.238281 409.667969 193.230469 C 410.65625 191.222656 411.707031 189.152344 412.632812 187.082031 C 413.5625 185.015625 414.332031 183.316406 414.578125 181.214844 C 414.664062 180.558594 414.683594 179.898438 414.640625 179.238281 C 417.113281 180.84375 419.613281 182.636719 420.632812 185.507812 C 420.632812 185.539062 420.632812 185.570312 420.664062 185.570312 C 420.078125 189.398438 417.574219 192.613281 414.980469 195.328125 C 414.117188 196.195312 413.25 197.058594 412.324219 197.832031 C 411.585938 198.375 410.96875 199.035156 410.472656 199.808594 C 409.636719 201.199219 409.296875 203.144531 410.441406 204.441406 C 411.585938 205.738281 413.34375 206.140625 414.917969 205.921875 C 415.128906 205.921875 415.324219 205.867188 415.507812 205.769531 C 415.785156 205.644531 415.96875 205.429688 416.246094 205.335938 C 416.457031 205.261719 416.667969 205.222656 416.890625 205.222656 C 417.109375 205.222656 417.324219 205.257812 417.535156 205.332031 C 417.742188 205.402344 417.933594 205.507812 418.101562 205.648438 C 418.273438 205.789062 418.417969 205.949219 418.535156 206.140625 C 418.933594 206.789062 418.84375 207.40625 419.675781 207.714844 L 419.738281 207.714844 L 419.492188 208.207031 C 419.058594 208.925781 418.535156 209.5625 417.914062 210.125 C 417.308594 210.667969 416.640625 211.121094 415.90625 211.484375 C 415.546875 211.644531 415.175781 211.777344 414.796875 211.882812 C 414.492188 211.949219 414.195312 212.03125 413.902344 212.132812 C 413.59375 212.0625 413.304688 211.949219 413.035156 211.792969 C 412.386719 211.453125 411.863281 210.894531 411.152344 210.710938 C 409.667969 210.339844 408.464844 211.792969 407.660156 212.808594 C 407.605469 212.957031 407.625 213.089844 407.722656 213.210938 C 407.75 213.425781 407.820312 213.621094 407.941406 213.800781 C 407.589844 214 407.324219 214.277344 407.136719 214.632812 C 407.066406 214.800781 407.015625 214.976562 406.980469 215.15625 C 407.074219 214.261719 407.136719 213.398438 407.167969 212.53125 C 407.238281 210.382812 407.066406 208.25 406.640625 206.140625 C 406.210938 203.824219 405.964844 201.628906 406.796875 199.34375 Z M 406.796875 199.34375 " fill-opacity="1" fill-rule="nonzero"/></g></svg>